<?xml version="1.0" encoding="UTF-8" standalone="no"?>
<svg
   viewBox="0 0 430 72"
   version="1.1"
   id="svg16"
   xmlns="http://www.w3.org/2000/svg"
   xmlns:svg="http://www.w3.org/2000/svg">
  <defs
     id="defs20" />
  <title
     id="title2">Trellis Economics</title>
  <g
     fill="#ffffff"
     transform="translate(0,4)"
     id="g12">
    <path
       d="m 4,4 h 13 c 7.18,0 13,5.82 13,13 V 30 H 17 C 9.82,30 4,24.18 4,17 Z"
       id="path4" />
    <path
       d="m 47,4 h 13 v 13 c 0,7.18 -5.82,13 -13,13 H 34 V 17 C 34,9.82 39.82,4 47,4 Z"
       id="path6" />
    <path
       d="M 4,47 C 4,39.82 9.82,34 17,34 h 13 v 13 c 0,7.18 -5.82,13 -13,13 H 4 Z"
       id="path8" />
    <path
       d="m 34,34 h 13 c 7.18,0 13,5.82 13,13 V 60 H 47 C 39.82,60 34,54.18 34,47 Z"
       id="path10" />
  </g>
  <g
     aria-label="Trellis Economics"
     id="text14"
     style="font-weight:700;font-size:32px;font-family:'DejaVu Serif', Georgia, serif;letter-spacing:-1;fill:#ffffff">
    <path
       d="m 83.796875,48 v -1.890625 h 3.09375 V 26.8125 H 80.5 V 30.5 H 78.359375 V 24.671875 H 101.48438 V 30.5 H 99.375 v -3.6875 h -6.4375 v 19.296875 h 3.109375 V 48 Z"
       id="path22" />
    <path
       d="m 115.67188,31.203125 v 4.953125 h -1.76563 q -0.0937,-1.328125 -0.71875,-1.96875 -0.625,-0.65625 -1.8125,-0.65625 -1.8125,0 -2.85937,1.59375 -1.04688,1.59375 -1.04688,4.421875 v 6.5625 h 3.01563 V 48 H 99.578125 V 46.109375 H 101.9375 V 33.28125 h -2.53125 v -1.890625 h 8.0625 v 2.953125 q 0.8125,-1.734375 2.14063,-2.5625 1.34375,-0.84375 3.28125,-0.84375 0.48437,0 1.17187,0.07813 0.70313,0.0625 1.60938,0.1875 z"
       id="path24" />
    <path
       d="m 127.17188,38.625 q 0,-3.28125 -0.60938,-4.59375 -0.60937,-1.328125 -2.07812,-1.328125 -1.42188,0 -2.04688,1.296875 -0.60937,1.296875 -0.60937,4.34375 V 38.625 Z m 6.07812,1.859375 h -11.42187 v 0.125 q 0,3.21875 0.96875,4.65625 0.96875,1.421875 3.125,1.421875 1.79687,0 2.90624,-0.953125 1.10938,-0.953125 1.42188,-2.765625 h 2.59375 q -0.67188,2.828125 -2.67188,4.15625 -2,1.328125 -5.59374,1.328125 -4.3125,0 -6.625,-2.265625 -2.29688,-2.28125 -2.29688,-6.5 0,-4.125 2.35938,-6.4375 2.35937,-2.3125 6.5625,-2.3125 4.12499,0 6.32812,2.4375 2.20312,2.421875 2.34375,7.109375 z"
       id="path26" />
    <path
       d="m 142.6875,46.109375 h 2.375 V 48 h -10.26563 v -1.890625 h 2.35938 V 25.5625 h -2.35938 v -1.875 h 7.89063 z"
       id="path28" />
    <path
       d="m 153.84375,46.109375 h 2.375 V 48 h -10.26563 v -1.890625 h 2.35938 V 25.5625 h -2.35938 v -1.875 h 7.89063 z"
       id="path30" />
    <path
       d="m 158.95312,26.6875 q 0,-1.265625 0.875,-2.125 0.875,-0.875 2.14063,-0.875 1.23437,0 2.09375,0.875 0.875,0.859375 0.875,2.125 0,1.234375 -0.875,2.109375 -0.85938,0.859375 -2.09375,0.859375 -1.26563,0 -2.14063,-0.859375 -0.875,-0.859375 -0.875,-2.109375 z M 165,46.109375 h 2.375 V 48 h -10.26563 v -1.890625 h 2.35938 V 33.28125 h -2.35938 V 31.390625 H 165 Z"
       id="path32" />
    <path
       d="M 168.67187,47.515625 V 42.875 h 1.76563 q 0.21875,1.859375 1.39062,2.84375 1.17188,0.96875 3.1875,0.96875 1.6875,0 2.57813,-0.578125 0.90625,-0.59375 0.90625,-1.6875 0,-1 -0.57813,-1.546875 -0.5625,-0.546875 -2.20312,-0.953125 L 173.4375,41.34375 q -2.57813,-0.640625 -3.73438,-1.828125 -1.15625,-1.203125 -1.15625,-3.234375 0,-2.703125 1.875,-4.015625 1.875,-1.328125 5.78125,-1.328125 1.46875,0 3.125,0.25 1.67188,0.234375 3.6875,0.75 V 36.125 H 181.25 q -0.14063,-1.703125 -1.21875,-2.5625 -1.0625,-0.859375 -3.0625,-0.859375 -1.6875,0 -2.5625,0.546875 -0.85938,0.53125 -0.85938,1.5625 0,0.84375 0.5,1.328125 0.5,0.484375 1.79688,0.8125 l 2.26562,0.578125 q 3.26563,0.828125 4.51563,2.046875 1.25,1.21875 1.25,3.390625 0,2.8125 -2.01563,4.15625 -2,1.328125 -6.23437,1.328125 -1.54688,0 -3.28125,-0.234375 -1.73438,-0.234375 -3.67188,-0.703125 z"
       id="path34" />
    <path
       d="m 195.82812,48 v -1.890625 h 2.98438 V 26.5625 h -2.98438 v -1.890625 h 20.96875 v 5.5 h -2.15625 V 26.8125 h -9.8125 v 7.484375 h 6.10938 v -2.96875 h 2.14062 v 8.0625 h -2.14062 v -2.96875 h -6.10938 v 9.4375 H 214.9375 V 42.5 h 2.14062 V 48 Z"
       id="path36" />
    <path
       d="m 235.76562,42.8125 q -0.59375,2.84375 -2.4375,4.25 -1.82812,1.390625 -4.98437,1.390625 -4.4375,0 -6.875,-2.296875 -2.4375,-2.296875 -2.4375,-6.46875 0,-4.125 2.40625,-6.4375 2.40625,-2.3125 6.6875,-2.3125 1.73437,0 3.5,0.328125 1.76562,0.328125 3.59375,0.984375 v 4.609375 h -1.75 q -0.25,-2.109375 -1.23438,-3.125 -0.98437,-1.03125 -2.76562,-1.03125 -2.3125,0 -3.29688,1.5625 -0.96875,1.5625 -0.96875,5.421875 0,3.765625 0.95313,5.390625 0.95312,1.609375 3.10937,1.609375 1.67188,0 2.67188,-1 1.01562,-1 1.23437,-2.875 z"
       id="path38" />
    <path
       d="m 246.89062,46.6875 q 1.75,0 2.45313,-1.5 0.71875,-1.5 0.71875,-5.5 0,-4 -0.70313,-5.484375 -0.70312,-1.5 -2.46875,-1.5 -1.76562,0 -2.48437,1.515625 -0.71875,1.5 -0.71875,5.46875 0,3.96875 0.71875,5.484375 0.71875,1.515625 2.48437,1.515625 z m 0,1.765625 Q 242.5,48.453125 240,46.125 q -2.48438,-2.34375 -2.48438,-6.4375 0,-4.109375 2.48438,-6.421875 2.5,-2.328125 6.89062,-2.328125 4.40625,0 6.89063,2.328125 2.48437,2.3125 2.48437,6.421875 0,4.09375 -2.5,6.4375 -2.48437,2.328125 -6.875,2.328125 z"
       id="path40" />
    <path
       d="M 257.64062,48 V 46.109375 H 260 V 33.28125 h -2.35938 v -1.890625 h 7.89063 v 2.34375 q 1,-1.484375 2.28125,-2.140625 1.28125,-0.65625 3.23437,-0.65625 2.79688,0 4.21875,1.65625 1.4375,1.640625 1.4375,4.84375 v 8.671875 h 2.375 V 48 h -9.92187 v -1.890625 h 2.01562 V 37.28125 q 0,-2.109375 -0.54687,-2.921875 -0.53125,-0.828125 -1.85938,-0.828125 -1.67187,0 -2.45312,1.234375 -0.78125,1.21875 -0.78125,3.890625 v 7.453125 h 2.03125 V 48 Z"
       id="path42" />
    <path
       d="m 289.5,46.6875 q 1.75,0 2.45312,-1.5 0.71875,-1.5 0.71875,-5.5 0,-4 -0.70312,-5.484375 -0.70313,-1.5 -2.46875,-1.5 -1.76563,0 -2.48438,1.515625 -0.71875,1.5 -0.71875,5.46875 0,3.96875 0.71875,5.484375 0.71875,1.515625 2.48438,1.515625 z m 0,1.765625 q -4.39063,0 -6.89063,-2.328125 -2.48437,-2.34375 -2.48437,-6.4375 0,-4.109375 2.48437,-6.421875 2.5,-2.328125 6.89063,-2.328125 4.40625,0 6.89062,2.328125 2.48438,2.3125 2.48438,6.421875 0,4.09375 -2.5,6.4375 -2.48438,2.328125 -6.875,2.328125 z"
       id="path44" />
    <path
       d="m 318.57812,34.109375 q 1.15625,-1.65625 2.5,-2.40625 1.34375,-0.765625 3.14063,-0.765625 2.85937,0 4.26562,1.625 1.42188,1.609375 1.42188,4.875 v 8.671875 h 2.375 V 48 h -9.89063 v -1.890625 h 1.98438 v -7.84375 q 0,-3.109375 -0.48438,-3.921875 -0.46875,-0.8125 -1.76562,-0.8125 -1.46875,0 -2.28125,1.140625 -0.8125,1.125 -0.8125,3.21875 v 8.21875 h 1.98437 V 48 h -9.5 V 46.109375 H 313.5 v -7.84375 q 0,-3.109375 -0.48438,-3.921875 -0.48437,-0.8125 -1.76562,-0.8125 -1.48438,0 -2.29688,1.140625 -0.8125,1.125 -0.8125,3.21875 v 8.21875 H 310.125 V 48 h -9.875 v -1.890625 h 2.35937 V 33.28125 H 300.25 v -1.890625 h 7.89062 v 2.34375 q 0.96875,-1.453125 2.21875,-2.125 1.25,-0.671875 2.96875,-0.671875 2.03125,0 3.29688,0.78125 1.26562,0.765625 1.95312,2.390625 z"
       id="path46" />
    <path
       d="m 334.95312,26.6875 q 0,-1.265625 0.875,-2.125 0.875,-0.875 2.14063,-0.875 1.23437,0 2.09375,0.875 0.875,0.859375 0.875,2.125 0,1.234375 -0.875,2.109375 -0.85938,0.859375 -2.09375,0.859375 -1.26563,0 -2.14063,-0.859375 -0.875,-0.859375 -0.875,-2.109375 z M 341,46.109375 h 2.375 V 48 h -10.26563 v -1.890625 h 2.35938 V 33.28125 h -2.35938 V 31.390625 H 341 Z"
       id="path48" />
    <path
       d="m 361.21875,42.8125 q -0.59375,2.84375 -2.4375,4.25 -1.82813,1.390625 -4.98438,1.390625 -4.4375,0 -6.875,-2.296875 -2.4375,-2.296875 -2.4375,-6.46875 0,-4.125 2.40625,-6.4375 2.40625,-2.3125 6.6875,-2.3125 1.73438,0 3.5,0.328125 1.76563,0.328125 3.59375,0.984375 v 4.609375 h -1.75 q -0.25,-2.109375 -1.23437,-3.125 -0.98438,-1.03125 -2.76563,-1.03125 -2.3125,0 -3.29687,1.5625 -0.96875,1.5625 -0.96875,5.421875 0,3.765625 0.95312,5.390625 0.95313,1.609375 3.10938,1.609375 1.67187,0 2.67187,-1 1.01563,-1 1.23438,-2.875 z"
       id="path50" />
    <path
       d="M 363.15625,47.515625 V 42.875 h 1.76562 q 0.21875,1.859375 1.39063,2.84375 1.17187,0.96875 3.1875,0.96875 1.6875,0 2.57812,-0.578125 0.90625,-0.59375 0.90625,-1.6875 0,-1 -0.57812,-1.546875 -0.5625,-0.546875 -2.20313,-0.953125 l -2.28125,-0.578125 q -2.57812,-0.640625 -3.73437,-1.828125 -1.15625,-1.203125 -1.15625,-3.234375 0,-2.703125 1.875,-4.015625 1.875,-1.328125 5.78125,-1.328125 1.46875,0 3.125,0.25 1.67187,0.234375 3.6875,0.75 v 4.1875 h -1.76563 q -0.14062,-1.703125 -1.21875,-2.5625 -1.0625,-0.859375 -3.0625,-0.859375 -1.6875,0 -2.5625,0.546875 -0.85937,0.53125 -0.85937,1.5625 0,0.84375 0.5,1.328125 0.5,0.484375 1.79687,0.8125 l 2.26563,0.578125 q 3.26562,0.828125 4.51562,2.046875 1.25,1.21875 1.25,3.390625 0,2.8125 -2.01562,4.15625 -2,1.328125 -6.23438,1.328125 -1.54687,0 -3.28125,-0.234375 -1.73437,-0.234375 -3.67187,-0.703125 z"
       id="path52" />
  </g>
</svg>
